<?xml version="1.0" encoding="UTF-8" standalone="no"?><!-- Generator: Gravit.io --><svg xmlns="http://www.w3.org/2000/svg" xmlns:xlink="http://www.w3.org/1999/xlink" style="isolation:isolate" viewBox="0 0 480 250" width="480pt" height="250pt"><defs><clipPath id="_clipPath_v85O5CimHTcUpmqgUORKOPiVaegB4PYI"><rect width="480" height="250"/></clipPath></defs><g clip-path="url(#_clipPath_v85O5CimHTcUpmqgUORKOPiVaegB4PYI)"><rect width="480" height="250" style="fill:rgb(0,0,0)" fill-opacity="0"/><g style="isolation:isolate"><g style="isolation:isolate"><path d=" M 409 156 C 419.281 161.063 437.563 134.531 445 142 C 452.438 149.469 456.117 152.516 466 157 C 475.883 161.484 463.125 174.75 453 179 Q 442.875 183.25 396 174.274 Q 398.719 150.938 409 156 Z " fill="rgb(255,65,117)" vector-effect="non-scaling-stroke" stroke-width="2" stroke="rgb(18,19,19)" stroke-linejoin="miter" stroke-linecap="square" stroke-miterlimit="3"/><path d=" M 450 148 Q 445.25 152.625 440 155" fill="none" vector-effect="non-scaling-stroke" stroke-width="1" stroke="rgb(18,19,19)" stroke-linejoin="miter" stroke-linecap="square" stroke-miterlimit="3"/><path d=" M 461 155 Q 452.5 162.625 445 165" fill="none" vector-effect="non-scaling-stroke" stroke-width="1" stroke="rgb(18,19,19)" stroke-linejoin="miter" stroke-linecap="square" stroke-miterlimit="3"/></g><g style="isolation:isolate"><path d=" M 164.452 171.019 Q 170.62 166.166 174.216 158 L 197 174.274 Q 156.656 210.431 146.008 187.293 C 143.567 174.003 158.284 175.872 164.452 171.019 Z " fill="rgb(255,65,117)" vector-effect="non-scaling-stroke" stroke-width="2" stroke="rgb(18,19,19)" stroke-linejoin="miter" stroke-linecap="square" stroke-miterlimit="3"/><path d=" M 147 188 Q 155.75 187 160 184" fill="none" vector-effect="non-scaling-stroke" stroke-width="1" stroke="rgb(18,19,19)" stroke-linejoin="miter" stroke-linecap="square" stroke-miterlimit="3"/><path d=" M 157 196 Q 159.225 194.172 162.086 190.914" fill="none" vector-effect="non-scaling-stroke" stroke-width="1" stroke="rgb(18,19,19)" stroke-linejoin="miter" stroke-linecap="square" stroke-miterlimit="3"/></g><linearGradient id="_lgradient_0" x1="0.3607748077235503" y1="0.21771121978719077" x2="0.7738176410002668" y2="0.8830523097996404" gradientTransform="matrix(256.546,0,0,181.937,161,20.07)" gradientUnits="userSpaceOnUse"><stop offset="0%" stop-opacity="1" style="stop-color:rgb(249,186,226)"/><stop offset="14.680990841287631%" stop-opacity="1" style="stop-color:rgb(255,163,212)"/><stop offset="100%" stop-opacity="1" style="stop-color:rgb(255,64,116)"/></linearGradient><path d=" M 256 25 C 222.313 32.422 161 84 161 133 C 161 182 244.673 207.529 317 201 C 370.838 196.14 423.5 179 417 133 C 410.5 87 396.91 62.087 360 39 C 323.09 15.913 289.688 17.578 256 25 Z " fill="url(#_lgradient_0)" vector-effect="non-scaling-stroke" stroke-width="2" stroke="rgb(18,19,19)" stroke-linejoin="miter" stroke-linecap="square" stroke-miterlimit="3"/><g style="isolation:isolate"><path d=" M 338 148 C 345.495 139.569 352.403 147.913 366 160 C 375.579 168.515 394 168.5 394 182 C 393.861 185.598 387.215 192.509 385 195 C 377.505 203.431 360.597 201.087 347 189 C 333.403 176.913 330.505 156.431 338 148 Z " fill="rgb(255,65,117)" vector-effect="non-scaling-stroke" stroke-width="2" stroke="rgb(18,19,19)" stroke-linejoin="miter" stroke-linecap="square" stroke-miterlimit="3"/><path d=" M 368.375 191.5 Q 370.5 194.5 377 199" fill="none" vector-effect="non-scaling-stroke" stroke-width="1" stroke="rgb(0,0,0)" stroke-linejoin="miter" stroke-linecap="square" stroke-miterlimit="3"/><path d=" M 378.875 180 Q 382.875 183.875 390 189" fill="none" vector-effect="non-scaling-stroke" stroke-width="1" stroke="rgb(0,0,0)" stroke-linejoin="miter" stroke-linecap="square" stroke-miterlimit="3"/></g><g style="isolation:isolate"><path d=" M 216.151 136.69 C 196.631 131.297 194.315 136.889 192.886 144.031 C 191.057 153.177 213.061 165.119 240.88 170.683 C 268.698 176.246 291.864 173.338 293.693 164.193 C 295.518 155.072 292.618 146.409 254.88 147.064 C 253.777 147.036 252.456 146.966 251.033 146.853 Q 233.949 157.039 220 142 Q 217.645 139.461 216.151 136.69 Z " fill-rule="evenodd" fill="rgb(253,65,115)" vector-effect="non-scaling-stroke" stroke-width="2" stroke="rgb(18,19,19)" stroke-linejoin="miter" stroke-linecap="square" stroke-miterlimit="3"/><path d=" M 206 147.064 Q 226.395 155.524 238 158 Q 249.605 160.476 278 162" fill="rgb(253,65,115)" vector-effect="non-scaling-stroke" stroke-width="2" stroke="rgb(18,19,19)" stroke-linejoin="miter" stroke-linecap="square" stroke-miterlimit="3"/></g><path d=" M 248 77 Q 198.667 119 220 142 Q 241.333 165 270 129" fill="none" vector-effect="non-scaling-stroke" stroke-width="2" stroke="rgb(18,19,19)" stroke-linejoin="miter" stroke-linecap="square" stroke-miterlimit="3"/><path d=" M 301.061 105.542 C 301.138 99.469 298.983 94.661 295.551 94.062 C 291.343 93.327 286.797 99.196 285.407 107.159 C 284.017 115.122 286.304 122.183 290.512 122.918 C 294.507 123.616 298.806 118.363 300.421 111.016 L 299 110.196 L 296 108.464 L 299 106.732 L 301.061 105.542 Z " fill-rule="evenodd" fill="rgb(18,19,19)"/><path d=" M 211.535 95.269 C 212.008 89.864 210.488 85.479 207.415 84.515 C 203.339 83.237 198.066 88.461 195.646 96.174 C 193.227 103.887 194.572 111.187 198.648 112.465 C 202.693 113.734 207.918 108.599 210.361 100.982 L 209 100.196 L 206 98.464 L 209 96.732 L 211.535 95.269 Z " fill-rule="evenodd" fill="rgb(18,19,19)"/></g><g style="isolation:isolate"><path d="M 47 210 L 194 210 C 197.311 210 200 212.176 200 214.857 L 200 214.857 C 200 221.559 193.279 227 185 227 L 51 227 C 45.481 227 41 222.519 41 217 L 41 216 C 41 212.689 43.689 210 47 210 Z" style="stroke:none;fill:#DBDBDB;stroke-miterlimit:10;"/><path d="M 47 210 L 194 210 C 197.311 210 200 212.176 200 214.857 L 200 214.857 C 200 221.559 193.279 227 185 227 L 51 227 C 45.481 227 41 222.519 41 217 L 41 216 C 41 212.689 43.689 210 47 210 Z" style="fill:none;stroke:#121313;stroke-width:2;stroke-linecap:square;stroke-miterlimit:2;"/><path d=" M 18.996 115.79 L 121.004 112.21 C 124.313 112.094 127.538 114.634 128.2 117.879 L 145.8 204.121 C 146.462 207.366 144.311 210 141 210 L 47 210 C 43.689 210 40.232 207.423 39.287 204.25 L 14.713 121.75 C 13.768 118.577 15.687 115.906 18.996 115.79 Z " fill="rgb(235,235,235)" vector-effect="non-scaling-stroke" stroke-width="2" stroke="rgb(18,19,19)" stroke-linejoin="miter" stroke-linecap="square" stroke-miterlimit="3"/><clipPath id="_clipPath_QKVyBmvsFXHYXZfNqjTO8O3qAiKiARIK"><rect x="60.282" y="149.282" width="29.915" height="29.915" transform="matrix(0.986,-0.167,0.167,0.986,-26.302,14.824)" fill="rgb(255,255,255)"/></clipPath><g clip-path="url(#_clipPath_QKVyBmvsFXHYXZfNqjTO8O3qAiKiARIK)"><g><g><path d=" M 84.338 177.241 C 80.108 177.196 77.371 175.661 75.737 172.423 Q 75.403 171.505 75.115 170.834 C 74.826 170.164 74.427 160.298 75.442 159.149 C 75.61 159.694 75.555 159.648 75.811 161.337 C 76.017 163.451 76.476 163.778 76.907 162.138 C 77.147 161.162 77.138 160.961 76.761 160.671 C 76.206 160.234 76.219 160.156 77.001 159.998 C 77.808 159.837 79.384 158.837 79.334 158.542 C 79.317 158.444 78.583 158.138 77.705 157.882 C 76.299 157.487 73.919 156.12 74.484 156.024 C 74.583 156.008 75.476 156.211 76.436 156.504 C 78.109 156.979 79.597 156.956 84.055 156.405 C 84.28 156.392 84.621 156.613 84.822 156.907 C 85.201 157.501 86.721 157.674 88.049 157.298 C 88.679 157.141 88.737 157.182 88.676 157.723 C 88.539 158.707 88.29 158.875 86.348 159.203 C 84.578 159.502 84.615 159.572 86.677 159.653 C 87.058 159.665 87.378 159.763 87.398 159.886 C 87.452 160.205 85.47 160.742 84.879 160.539 C 84.609 160.433 83.822 160.414 83.15 160.477 C 81.957 160.602 81.867 160.668 80.968 161.932 C 80.962 162.017 80.399 162.766 80.319 162.876 C 78.087 165.311 79.077 172.137 79.097 172.26 C 79.856 173.056 83.392 175.176 85.707 175.619 C 86.363 175.609 90.74 175.78 91.207 175.701 C 92.633 175.46 92.237 175.957 90.668 176.399 C 88.517 176.99 86.416 177.269 84.338 177.241 Z " fill="rgb(18,19,19)"/></g><g><path d=" M 79.775 174.775 C 77.54 173.964 76.854 173.499 76.184 172.373 C 75.081 170.486 74.599 165.385 75.24 162.596 L 75.435 161.805 L 75.724 162.767 C 75.931 163.39 76.161 163.705 76.407 163.663 C 76.824 163.593 77.59 161.39 77.396 160.842 C 77.306 160.604 77.649 160.243 78.406 159.786 C 79.389 159.165 79.536 158.989 79.436 158.399 C 79.308 157.788 79.373 157.727 80.307 157.569 C 80.873 157.473 81.601 157.148 81.905 157.299 C 82.184 157.454 82.89 157.891 83.504 157.787 C 84.316 157.65 84.963 157.743 85.808 158.106 L 87.441 158.64 L 86.253 159.093 C 85.819 159.217 84.917 158.965 84.376 158.904 C 83.81 158.848 83.31 158.882 83.249 158.968 C 83.024 159.284 84.341 159.896 85.304 159.911 C 85.862 159.918 86.079 160.007 85.928 160.159 C 85.772 160.287 85.248 160.325 84.772 160.203 C 84.296 160.081 83.387 160.083 82.747 160.191 C 81.69 160.369 81.51 160.501 80.55 161.851 L 79.508 163.317 L 80.177 163.684 C 80.624 163.937 81.01 163.973 81.456 163.771 C 82.279 163.405 83.828 163.143 84.086 163.327 C 84.431 163.572 84.071 163.835 83.231 163.952 C 82.784 164.002 82.088 164.221 81.671 164.443 C 81.159 164.706 80.618 164.798 79.999 164.725 L 79.048 164.633 L 78.519 166.593 C 78.218 167.655 78.032 168.799 78.086 169.119 C 78.178 169.66 78.28 169.668 79.706 169.427 L 81.23 169.169 L 81.745 170.574 C 82.232 171.958 82.232 171.958 82.612 171.363 C 82.837 171.047 83.164 170.739 83.36 170.706 C 83.557 170.673 83.357 171.136 82.867 171.826 C 82.397 172.487 81.976 172.987 81.943 172.942 C 81.886 172.902 81.626 172.414 81.33 171.858 C 81.058 171.297 80.725 170.822 80.59 170.769 C 80.315 170.639 78.647 172.286 78.68 172.634 C 78.738 172.978 79.564 173.825 80.615 174.658 C 81.103 175.006 81.461 175.325 81.387 175.337 C 81.338 175.345 80.612 175.089 79.775 174.775 Z " fill="rgb(18,19,19)"/><path d=" M 72.88 168.229 C 72.398 165.377 72.344 165.209 71.927 165.431 C 71.599 165.588 71.017 165.282 69.592 164.182 C 67.24 162.38 65.638 160.679 64.765 159.107 L 64.107 157.903 L 63.319 159.073 C 61.296 162.069 61.375 166.278 63.528 170.642 C 64.327 172.227 64.085 172.293 63.098 170.791 C 60.413 166.719 60.151 163.072 62.251 158.293 C 63.234 156.028 63.396 155.192 62.799 155.545 C 62.57 155.685 62.573 155.407 62.792 154.459 C 62.975 153.746 63.199 153.127 63.322 153.106 C 63.42 153.089 63.569 153.519 63.66 154.06 C 63.901 155.486 65.16 157.7 66.725 159.484 C 68.163 161.112 71.977 163.931 72.329 163.619 C 72.836 163.179 72.828 161.335 72.371 158.48 C 72.093 156.833 71.95 155.542 72.065 155.624 C 72.156 155.71 72.555 156.426 72.888 157.204 C 73.823 159.296 74.198 161.963 74.008 165.029 C 73.921 166.46 73.863 168.214 73.877 168.894 C 73.895 169.599 73.778 170.403 73.651 170.702 C 73.427 171.17 73.32 170.834 72.88 168.229 Z " fill="rgb(18,19,19)"/></g></g></g></g></g></svg>